<?xml version="1.0" standalone="no"?>
<!DOCTYPE svg PUBLIC "-//W3C//DTD SVG 20010904//EN"
 "http://www.w3.org/TR/2001/REC-SVG-20010904/DTD/svg10.dtd">
<svg version="1.0" xmlns="http://www.w3.org/2000/svg" width="32px" height="20px" viewBox="0 0 100.000000 100.000000"
 preserveAspectRatio="xMidYMid meet">

<g transform="translate(0.000000,100.000000) scale(0.100000,-0.100000)"
fill="#FFF" stroke="none">
<path d="M437 864 c-4 -4 -7 -16 -7 -26 0 -16 -9 -18 -64 -18 -57 0 -67 -3
-84 -25 -12 -15 -30 -25 -45 -25 -61 0 -60 -63 1 -86 1 -1 11 -108 21 -238 15
-195 22 -240 36 -256 17 -19 32 -20 205 -20 170 0 188 2 204 19 14 15 21 65
36 256 11 131 21 239 22 239 61 21 61 86 1 86 -15 0 -33 10 -45 25 -17 22 -27
25 -83 25 -58 0 -64 2 -67 23 -3 20 -9 22 -63 25 -34 2 -64 0 -68 -4z m113
-29 c0 -11 -12 -15 -50 -15 -38 0 -50 4 -50 15 0 11 12 15 50 15 38 0 50 -4
50 -15z m155 -55 c18 -19 17 -20 -6 -22 -13 -1 1 -4 31 -7 40 -4 55 -10 55
-21 0 -13 -38 -15 -285 -15 -247 0 -285 2 -285 15 0 13 32 16 205 20 l205 6
-174 2 c-173 2 -174 2 -156 22 17 19 31 20 205 20 174 0 188 -1 205 -20z
m-424 -102 c0 -7 7 -78 14 -158 l14 -145 -5 115 c-2 63 -7 134 -10 158 l-6 42
211 0 211 0 1 -22 2 -23 4 23 c2 12 9 22 14 22 6 0 7 -25 4 -62 -4 -35 -12
-141 -20 -236 -7 -102 -18 -178 -25 -187 -18 -22 -362 -22 -380 0 -7 9 -18 85
-25 187 -8 95 -16 201 -20 236 -3 39 -2 62 5 62 5 0 10 -6 11 -12z"/>
<path d="M648 753 c7 -3 16 -2 19 1 4 3 -2 6 -13 5 -11 0 -14 -3 -6 -6z"/>
<path d="M354 589 c-3 -6 22 -39 57 -75 l63 -64 -64 -65 c-51 -51 -62 -67 -52
-77 10 -10 26 1 77 52 l65 64 65 -64 c51 -51 67 -62 77 -52 10 10 -1 26 -52
77 l-64 65 64 65 c51 51 62 67 52 77 -10 10 -26 -1 -77 -52 l-65 -64 -63 62
c-66 65 -72 69 -83 51z m83 -61 l63 -62 65 64 c35 35 68 61 72 57 4 -4 -22
-37 -57 -72 l-64 -65 64 -65 c35 -35 61 -68 57 -72 -4 -4 -37 22 -72 57 l-65
64 -65 -64 c-35 -35 -68 -61 -72 -57 -4 4 22 37 57 72 l64 65 -62 63 c-59 59
-71 77 -55 77 4 0 36 -28 70 -62z"/>
<path d="M695 503 c-3 -54 -8 -109 -11 -123 -3 -18 -2 -21 5 -10 9 16 26 230
18 230 -3 0 -8 -44 -12 -97z"/>
<path d="M311 305 c0 -27 3 -56 8 -63 5 -8 6 8 4 40 -6 73 -11 83 -12 23z"/>
</g>
</svg>
