<?xml version="1.0" standalone="no"?>
<!DOCTYPE svg PUBLIC "-//W3C//DTD SVG 20010904//EN"
 "http://www.w3.org/TR/2001/REC-SVG-20010904/DTD/svg10.dtd">
<svg version="1.0" xmlns="http://www.w3.org/2000/svg"
 width="32px" height="20px" viewBox="0 0 24.000000 24.000000"
 preserveAspectRatio="xMidYMid meet">

<g transform="translate(0.000000,24.000000) scale(0.100000,-0.100000)"
fill="#FFF" stroke="none">
<path d="M34 197 c-3 -8 -4 -47 -2 -88 l3 -74 43 -3 c25 -2 42 1 42 7 0 6 -16
11 -35 11 l-35 0 0 60 0 60 70 0 c68 0 70 -1 70 -25 0 -14 5 -25 11 -25 6 0 9
17 7 43 l-3 42 -83 3 c-63 2 -84 0 -88 -11z"/>
<path d="M70 130 c0 -5 5 -10 10 -10 6 0 10 5 10 10 0 6 -4 10 -10 10 -5 0
-10 -4 -10 -10z"/>
<path d="M110 130 c0 -5 14 -10 30 -10 17 0 30 5 30 10 0 6 -13 10 -30 10 -16
0 -30 -4 -30 -10z"/>
<path d="M70 90 c0 -5 5 -10 10 -10 6 0 10 5 10 10 0 6 -4 10 -10 10 -5 0 -10
-4 -10 -10z"/>
<path d="M110 90 c0 -5 5 -10 10 -10 6 0 10 5 10 10 0 6 -4 10 -10 10 -5 0
-10 -4 -10 -10z"/>
<path d="M169 93 c-19 -5 -29 -34 -22 -62 9 -36 77 -36 86 0 6 23 -2 59 -13
59 -5 0 -14 2 -22 4 -7 2 -20 2 -29 -1z"/>
</g>
</svg>
